<?xml version="1.0" encoding="UTF-8" standalone="no"?><svg viewBox="0 0 55 55" xmlns="http://www.w3.org/2000/svg" xmlns:xlink="http://www.w3.org/1999/xlink"><style>:root>svg{display:none}:root>svg:target{display:block}</style><svg fill="none" viewBox="0 0 55 55" id="bag" xmlns="http://www.w3.org/2000/svg"><path fill="#fffdfb" d="M29.159 28.617c3.275 0 5.955 3.443 5.955 4.303 0 .86-2.68 3.73-5.955 3.73-3.276 0-5.658-3.73-5.658-3.73s2.382-4.303 5.658-4.303z"/><path stroke-linejoin="round" stroke-linecap="round" stroke-width="2" stroke="#fffdfb" d="M19.928 29.478l3.573 3.442m0 0l-3.573 3.443m3.573-3.443s2.382 3.73 5.658 3.73c3.275 0 5.955-2.87 5.955-3.73 0-.86-2.68-4.303-5.955-4.303-3.276 0-5.658 4.303-5.658 4.303z"/><path fill="#fffdfb" d="M53.984 43.294l-3.326-22.407c-.11-.736-.764-1.283-1.537-1.283h-4.075c-.716-3.095-3.539-4.012-3.85-4.111-1.528-2.949-4.67-3.085-5.009-3.097-1.864-1.936-4.373-1.946-5.71-1.615-1.19-.682-3.6-1.349-5.954 0-1.338-.33-3.847-.321-5.711 1.615-.334.012-3.482.148-5.009 3.097-.316.101-3.135 1.022-3.85 4.111H5.88c-.773 0-1.428.548-1.537 1.283L1.016 43.294c-.064.43.069.864.364 1.19.294.328.723.516 1.173.516h49.894c.45 0 .878-.188 1.173-.515.295-.327.428-.762.364-1.19zm-39.446-26.19a1.536 1.536 0 001.318-1.098c.313-1.126 2.33-1.929 3.426-1.75a1.575 1.575 0 001.588-.7c.592-.942 2.181-1.4 3.22-.91a1.6 1.6 0 001.73-.24c.846-.744 2.51-.747 3.36 0a1.6 1.6 0 001.731.24c1.023-.483 3.213-.046 3.814.91.33.525.96.802 1.588.7 1.116-.183 3.119.643 3.426 1.75a1.535 1.535 0 001.318 1.098c.15.017 1.274 1.358 1.898 2.5H12.044c.57-1.045 2.189-2.466 2.494-2.5zM2.556 43.733l3.479-22.861h42.93l3.478 22.86z"/><path fill="#fffdfb" d="M14.538 17.104a1.536 1.536 0 001.318-1.098c.313-1.126 2.33-1.929 3.426-1.75a1.575 1.575 0 001.588-.7c.592-.942 2.181-1.4 3.22-.91a1.6 1.6 0 001.73-.24c.846-.744 2.51-.747 3.36 0a1.6 1.6 0 001.731.24c1.023-.483 3.213-.046 3.814.91.33.525.96.802 1.588.7 1.116-.183 3.119.643 3.426 1.75a1.535 1.535 0 001.318 1.098c.15.017 1.274 1.358 1.898 2.5H12.044c.57-1.045 2.189-2.466 2.494-2.5z"/></svg><svg fill="none" viewBox="0 0 55 55" id="cat" xmlns="http://www.w3.org/2000/svg"><path fill="#fffdfb" d="M50.577 12.793c-.331-.265-.796-.328-1.212-.203-1.549.466-2.714 1.395-3.274 1.91a5.853 5.853 0 00-3.188 0c-.567-.522-1.754-1.466-3.33-1.926a1.27 1.27 0 00-1.3.355c-.272.303-.34.72-.209 1.095.394 1.116 1.03 2.874 1.253 3.49a3.9 3.9 0 00-.18.959 5.81 5.81 0 00.015.913l-.44.866c-.289.567-.866.96-1.536 1.047-2.436.311-7.178.94-11.567 1.654-5.681.924-7.932 1.532-8.897 1.906a8.064 8.064 0 00-3.362-2.699c-2.074-.9-5.542-2.856-5.48-5.851.058-2.71 1.164-4.312 2.08-5.178.392-.37.598-.879.564-1.396a1.805 1.805 0 00-.74-1.327c-.847-.629-2.057-.52-2.754.249-2.323 2.555-2.879 6.093-3.004 7.975-.125 1.897.475 3.652 1.786 5.217.94 1.122 2.223 2.122 3.813 2.972 1.542.824 2.656 2.139 3.138 3.703.042.137.062.28.06.423l-.016.723a8.235 8.235 0 01-.09 1.056l-.53 3.499c-.206 1.372-1.156 2.527-2.485 3.16-.923.44-1.45 1.378-1.313 2.333l.966 6.678c.05.346.368.604.744.604h3.972c.16 0 .321-.04.452-.126a.672.672 0 00.292-.757l-.043-.143c-.312-1.042-1.166-1.84-2.252-2.146l-.186-1.429c-.053-.4.192-.784.597-.933l3.795-1.4c0 .037-.002.074-.005.11l-.001.013c-.037.66-.065 1.255-.083 1.768a2.45 2.45 0 00.802 1.884l3.185 2.955a.78.78 0 00.531.204h4.606c.396 0 .73-.3.751-.668.075-1.277-.894-2.382-2.259-2.574l-1.317-.185-.544-.793a1.083 1.083 0 01.022-1.27l3.592-4.879c1.092-.312 5.696-1.547 8.396-.962.036.33.134.652.292.953l5.237 9.986c.125.24.388.392.675.392h3.562a.825.825 0 00.445-.121.673.673 0 00.304-.744l-.242-.898c-.233-.866-.93-1.53-1.809-1.79l.872-7.038c.037-.294.13-.578.279-.84.542-.961 1.607-2.81 2.641-4.37a9.512 9.512 0 001.513-4.077c.268-2.192.794-4.993.925-5.674.578-.768.844-1.784.77-2.975a3.9 3.9 0 00-.18-.96c.226-.62.871-2.403 1.263-3.518.152-.43.014-.901-.362-1.202zM12.366 40.172c-1.037.383-1.667 1.367-1.533 2.395l.251 1.921c.042.32.313.57.658.608.436.047.827.232 1.118.511h-2.114l-.879-6.074c-.053-.372.152-.737.512-.909 1.667-.796 2.852-2.25 3.231-3.941 1.351 1.477 2.315 2.874 2.783 4.003zM45.37 30.47c-1.058 1.595-2.141 3.473-2.693 4.451a3.594 3.594 0 00-.44 1.33l-.412 3.32-.907-4.163a1.353 1.353 0 01.27-1.13l2.068-2.61c1.143-1.442 1.663-3.218 1.465-4.998-.043-.383-.412-.661-.824-.622-.413.04-.712.382-.67.765.16 1.436-.259 2.867-1.18 4.03l-2.069 2.61c-.507.639-.7 1.452-.531 2.23l1.846 8.48c.071.324.379.558.736.558.56 0 1.044.351 1.18.855l.008.031h-2.151l-5.032-9.594a1.339 1.339 0 01-.146-.786l.745-6.129c.046-.382-.25-.727-.662-.77-.413-.043-.784.232-.83.614l-.647 5.327c-2.45-.43-5.818.235-7.73.708a3.333 3.333 0 00-.755-2.695l-1.097-1.314a.79.79 0 00-1.053-.124.663.663 0 00-.134.977l1.097 1.314c.613.735.646 1.745.08 2.512l-3.738 5.078a2.39 2.39 0 00-.049 2.803l.728 1.06c.116.17.306.285.52.315l1.655.233c.34.047.623.224.797.471h-3.359l-2.965-2.75a1.115 1.115 0 01-.364-.854c.018-.502.045-1.086.082-1.734.166-2.23-2.182-5.12-3.598-6.645a1.37 1.37 0 01-.376-.963l.085-4.007c.002-.07-.123-.513-.123-.513-.59-1.914-1.95-3.522-3.833-4.527-4.236-2.264-4.975-5-4.85-6.896.265-3.984 1.776-6.198 2.653-7.164a.504.504 0 01.668-.059.432.432 0 01.18.323.42.42 0 01-.136.337c-1.108 1.046-2.442 2.958-2.51 6.127-.08 3.783 3.94 6.097 6.345 7.14 1.288.558 2.366 1.502 3.036 2.656l.042.07c.11.172.295.291.506.328a.796.796 0 00.607-.14c.782-.58 6.613-1.885 20.477-3.658.992-.127 1.861-.635 2.413-1.39.14.209.298.401.48.575.76.73 1.85 1.112 3.158 1.112l1.968-.001h.013c.706.015 1.351-.08 1.919-.278-.214 1.2-.491 2.856-.664 4.27a8.175 8.175 0 01-1.3 3.504zm2.81-13.199a.649.649 0 00.001.484c.1.248.16.516.177.797.062 1.022-.186 1.832-.718 2.343-.49.47-1.25.707-2.196.686h-.021c-.008 0-1.86-.002-1.896 0-.935.017-1.687-.22-2.173-.686-.532-.51-.78-1.32-.718-2.343.018-.28.077-.549.177-.797a.65.65 0 00.002-.48l-.001-.004c-.072-.197-.687-1.892-1.145-3.178a7.46 7.46 0 012.448 1.663.79.79 0 00.868.196 4.204 4.204 0 013.024 0 .792.792 0 00.867-.194 7.46 7.46 0 012.449-1.665 595.049 595.049 0 01-1.145 3.178z"/><path fill="#fffdfb" d="M40.814 17.27l.001.006c.441-1.151.441-1.151 1.302-1.52a7.46 7.46 0 00-2.448-1.663c.458 1.285 1.073 2.98 1.145 3.178zM49.325 14.093a7.46 7.46 0 00-2.45 1.665c1.245.363 1.259.632 1.304 1.484l.001.03c.07-.195.687-1.892 1.145-3.179zM8.167 9.554c-.877.966-2.388 3.18-2.652 7.164l.855-.436c.067-3.169 1.401-5.081 2.51-6.127a.42.42 0 00.135-.337.432.432 0 00-.18-.323.504.504 0 00-.668.06z"/></svg><svg fill="none" viewBox="0 0 55 55" id="hand" xmlns="http://www.w3.org/2000/svg"><path fill="#fffdfb" d="M22.074 19.775a4.682 4.682 0 00-.374 1.863c.007 1.292.547 2.518 1.52 3.452a5.478 5.478 0 003.65 1.508 5.634 5.634 0 003.044-.787 5.623 5.623 0 003.043.787 5.485 5.485 0 003.625-1.483c.97-.918 1.518-2.127 1.544-3.407a4.673 4.673 0 00-.537-2.28c-.34-.654-3.1-3.484-4.076-4.521-.244-.26.412.649.134.877-.278.228-1.182-.134-.938.126.883.939 3.392 3.523 3.676 4.067.278.533.413 1.108.401 1.708-.04 1.992-1.74 3.6-3.87 3.661a4.186 4.186 0 01-2.588-.795.707.707 0 00-.828 0 4.19 4.19 0 01-2.589.795c-2.124-.06-3.86-1.727-3.87-3.714a3.506 3.506 0 01.279-1.395c.435-1.026 1.374-2.185 3.143-3.876 1.661-1.589 4.346-1.783 6.246-.451a.701.701 0 00.938-.126.6.6 0 00-.134-.877c-2.436-1.707-5.879-1.459-8.009.578-1.925 1.842-2.919 3.085-3.43 4.29zM26.377 13.476c1.722 0 3.123-1.677 3.123-3.738S28.1 6 26.377 6c-1.722 0-3.123 1.677-3.123 3.738 0 2.06 1.401 3.738 3.123 3.738zm0-6.223c.967 0 1.783 1.138 1.783 2.485s-.816 2.485-1.783 2.485c-.966 0-1.783-1.138-1.783-2.485s.817-2.485 1.783-2.485z"/><path fill="#fffdfb" d="M26.377 7.253c.967 0 1.783 1.138 1.783 2.485s-.816 2.485-1.783 2.485c-.966 0-1.783-1.138-1.783-2.485s.817-2.485 1.783-2.485zM19.979 17.955c1.39 0 2.478-1.282 2.478-2.92 0-1.637-1.089-2.92-2.478-2.92-1.39 0-2.479 1.283-2.479 2.92 0 1.638 1.089 2.92 2.479 2.92zm0-4.587c.617 0 1.138.763 1.138 1.667s-.521 1.667-1.138 1.667c-.617 0-1.138-.763-1.138-1.667s.52-1.667 1.138-1.667z"/><path fill="#fffdfb" d="M19.979 13.368c.617 0 1.138.763 1.138 1.667s-.521 1.667-1.138 1.667c-.617 0-1.138-.763-1.138-1.667s.52-1.667 1.138-1.667zM39.594 17.955c1.39 0 2.478-1.282 2.478-2.92 0-1.637-1.089-2.92-2.478-2.92-1.39 0-2.479 1.283-2.479 2.92 0 1.638 1.089 2.92 2.479 2.92zm0-4.587c.617 0 1.138.763 1.138 1.667s-.521 1.667-1.138 1.667c-.617 0-1.138-.763-1.138-1.667s.52-1.667 1.138-1.667z"/><path fill="#fffdfb" d="M39.594 13.368c.617 0 1.138.763 1.138 1.667s-.521 1.667-1.138 1.667c-.617 0-1.138-.763-1.138-1.667s.52-1.667 1.138-1.667zM34.219 13.476c1.722 0 3.123-1.677 3.123-3.738S35.94 6 34.219 6c-1.722 0-3.123 1.677-3.123 3.738 0 2.06 1.4 3.738 3.123 3.738zm0-6.223c.966 0 1.783 1.138 1.783 2.485s-.817 2.485-1.783 2.485c-.967 0-1.783-1.138-1.783-2.485s.816-2.485 1.783-2.485z"/><path fill="#fffdfb" d="M34.219 7.253c.966 0 1.783 1.138 1.783 2.485s-.817 2.485-1.783 2.485c-.967 0-1.783-1.138-1.783-2.485s.816-2.485 1.783-2.485zM46.948 25.938a3.703 3.703 0 00-2.543-.984c-.96 0-1.864.35-2.543.984l-3.944 3.688a3.704 3.704 0 00-2.662-1.105h-5.649c-.37 0 .707.28.707.627 0 .346-1.077.626-.707.626h5.649c1.244 0 2.256.947 2.256 2.11 0 1.163-1.012 2.11-2.256 2.11h-5.649c-.37 0-.67.28-.67.626s.3.627.67.627h5.649c1.983 0 3.597-1.509 3.597-3.363 0-.406-.078-.796-.22-1.157.008-.006.016-.012.023-.02l4.154-3.883c.88-.822 2.311-.822 3.19 0 .88.823.88 2.162 0 2.984l-8.326 7.785h-7.68c-.37 0 .32.28.32.627 0 .346-.37.626 0 .626h7.638a.694.694 0 00.473-.183l8.523-7.969c1.403-1.31 1.403-3.444 0-4.756z"/><path fill="#fffdfb" d="M30.486 37.593h-3.05a.694.694 0 00-.471.181l-2.107 1.946-5.149-4.814a3.823 3.823 0 01-.148-1.056c0-2.242 1.95-4.066 4.348-4.066.04 0 .078-.003.116-.01h5.89c.37 0 .67-.28.67-.626s-.3-.627-.67-.627h-6.537a.703.703 0 00-.3.068c-2.687.37-4.767 2.5-4.853 5.093l-.541-.506a.703.703 0 00-.948 0l-3.55 3.32a.619.619 0 00-.062.067L7.181 42.78a.604.604 0 00-.17.416L7 48.344c0 .345.298.626.668.627L18.71 49h.002a.694.694 0 00.474-.183l7.14-6.676a.606.606 0 00.195-.443.606.606 0 00-.196-.443l-.608-.568 1.994-1.84h2.775c.37 0 .67-.281.67-.627s-.3-.627-.67-.627zm-12.05 10.153L8.34 47.72l.009-4.283 5.34-5.585 7.663 7.166zm3.906-3.653L14.648 36.9l2.562-2.395 7.694 7.193z"/></svg><svg fill="none" viewBox="0 0 55 55" id="taxi" xmlns="http://www.w3.org/2000/svg"><path fill="#fffdfb" d="M52.833 29.553c-.223-.225-4.455-5.513-13.7-5.682-.89-1.575-4.287-6.695-9.8-6.695h-.167l-2.45-4.726c-.167-.281-.446-.45-.724-.45h-3.787c-.334 0-.612.169-.724.45l-2.227 4.67h-.724c-.223 0-5.458-.394-10.915 6.695H3.383c-.39 0-.724.281-.835.675-.056.338-1.727 8.44 1.058 11.927.89 1.07 2.06 1.632 3.508 1.632h1.17A5.73 5.73 0 0013.963 43a5.73 5.73 0 005.68-4.951h16.26A5.73 5.73 0 0041.584 43a5.73 5.73 0 005.68-4.951h4.9a.86.86 0 00.836-.844V30.06c0-.169-.056-.394-.167-.506zm-23.5-10.745c3.898 0 6.571 3.263 7.796 5.063H25.045v-5.063zm-6.571-5.12h2.729l1.782 3.488H21.09zm-4.288 5.12h4.956v5.063H9.787c4.51-5.232 8.576-5.063 8.687-5.063zm-4.51 22.56c-2.228 0-4.066-1.856-4.066-4.107 0-2.25 1.838-4.107 4.065-4.107 2.228 0 4.066 1.857 4.066 4.107.055 2.25-1.782 4.107-4.066 4.107zm27.62 0c-2.227 0-4.065-1.856-4.065-4.107 0-2.25 1.838-4.107 4.065-4.107 2.228 0 4.065 1.857 4.065 4.107s-1.782 4.107-4.065 4.107zm9.745-4.95h-4.065a5.73 5.73 0 00-5.68-4.952 5.73 5.73 0 00-5.68 4.951h-16.26a5.73 5.73 0 00-5.68-4.95 5.73 5.73 0 00-5.68 4.95h-1.17c-.947 0-1.67-.337-2.228-1.012-1.726-2.195-1.28-7.314-.835-9.846h34.582c7.74 0 11.805 3.882 12.696 4.838z"/><path fill="#fffdfb" d="M22.762 13.688h2.729l1.782 3.488H21.09zM13.963 41.368c-2.227 0-4.065-1.856-4.065-4.107 0-2.25 1.838-4.107 4.065-4.107 2.228 0 4.066 1.857 4.066 4.107.055 2.25-1.782 4.107-4.066 4.107zM41.584 41.368c-2.227 0-4.065-1.856-4.065-4.107 0-2.25 1.838-4.107 4.065-4.107 2.228 0 4.065 1.857 4.065 4.107s-1.782 4.107-4.065 4.107z"/></svg><svg viewBox="0 0 55 55" id="thermometer" xmlns="http://www.w3.org/2000/svg"><path d="M42.18 12.639a.82.82 0 010 1.639h-7.328a.82.82 0 110-1.64zm-2.94 4.518a.82.82 0 00-.82-.82h-3.568a.82.82 0 100 1.64h3.568a.82.82 0 00.82-.82zm-5.207 3.698c0 .453.367.82.82.82h7.328a.82.82 0 000-1.64h-7.329a.82.82 0 00-.82.82zm5.207 3.7a.82.82 0 00-.82-.82h-3.568a.82.82 0 100 1.64h3.568a.82.82 0 00.82-.82zm-5.207 3.698c0 .453.367.82.82.82h7.328a.82.82 0 100-1.64h-7.329a.82.82 0 00-.82.82zm1.397 14.88C35.43 49.678 30.175 55 23.715 55S12 49.677 12 43.134c0-4.24 2.198-8.094 5.785-10.226V6.006c0-3.312 2.66-6.006 5.93-6.006 3.27 0 5.93 2.694 5.93 6.006v26.902c3.587 2.13 5.785 5.984 5.785 10.226zm-1.625 0c0-3.597-1.974-7.555-5.152-9.19l-.633-.325V6.008c0-2.02-2.311-4.368-4.305-4.368-1.993 0-4.304 2.347-4.304 4.368v27.61l-.633.325c-3.179 1.637-5.153 5.594-5.153 9.19 0 5.251 4.907 10.228 10.09 10.228 5.184 0 10.09-4.977 10.09-10.227zm-2.616 0c0 4.174-3.352 7.57-7.474 7.57-4.12 0-7.472-3.396-7.472-7.57 0-3.42 2.97-6.424 6.238-7.304l.43-.116V22.062a.805.805 0 111.61 0v13.65l.43.117c3.268.88 6.238 3.885 6.238 7.305zm-6.445-5.056c-.178-.802-.944-.613-1.755-.425-2.832.65-4.811 3.158-4.811 6.102 0 .834 0 1.727 1.055 1.727.56 0 .69-.93.69-1.763 0-1.497.914-3.73 3.066-4.23.8-.187 1.936-.6 1.755-1.411z" fill="#fffdfb"/></svg><svg fill="none" viewBox="0 0 55 55" id="videocamera" xmlns="http://www.w3.org/2000/svg"><path d="M54.999 23.624c-.019-.406-.258-1.16-1.65-1.64L16.234 9.21c-1.903-.656-4.014.276-4.707 2.077L10.523 13.9l-2.26 5.88c-.693 1.8.291 3.799 2.194 4.454l10.817 3.723a3.984 3.984 0 00.884 3.247l-2.305 5.993a.742.742 0 01-.696.461h-6.75v-2.085c0-1.15-.989-2.086-2.204-2.086H8.734c-.405 0-.734.311-.734.695v11.123c0 .384.329.695.734.695h1.47c1.214 0 2.202-.936 2.202-2.086V41.83h6.751c2.156 0 4.1-1.288 4.837-3.206l2.256-5.867c1.29-.171 2.464-.885 3.16-2l12.641 4.351c.413.142.836.21 1.252.21 1.262 0 2.462-.621 3.134-1.658l1.45.5a1.544 1.544 0 001.123-.047c.355-.157.624-.435.758-.784l2.01-5.227c.245-.636-.034-1.333-.626-1.668l2.354-1.039c1.342-.593 1.511-1.363 1.493-1.77zm-44.062 20.29c0 .384-.329.696-.734.696H9.47v-9.733h.734c.405 0 .735.312.735.695zm11.677-5.767c-.527 1.37-1.916 2.292-3.457 2.292h-6.75v-1.39h6.75c.926 0 1.76-.554 2.077-1.377l2.108-5.482a4.6 4.6 0 001.366.511zm3.112-6.744l-.05.001c-.35.004-.707-.05-1.056-.17a2.979 2.979 0 01-1.056-.627.705.705 0 00-.088-.085 2.675 2.675 0 01-.785-2.077l5.302 1.824a2.964 2.964 0 01-2.267 1.134zM50.4 27.625l-2.01 5.227-1.38-.476 1.905-4.955.39-.172zm2.486-3.491l-3.926 1.733-.94.415h-.002l-1.102.487c-1.294.571-3.52.663-4.862.201L13.91 17.286c-.381-.13.577.53.439.891-.139.361-1.322.285-.941.416l28.143 9.684c.74.255 1.65.379 2.58.379 1.017 0 2.055-.15 2.914-.438l-1.668 4.336c-.415 1.08-1.682 1.64-2.824 1.246L10.96 22.928c-1.141-.393-1.732-1.593-1.317-2.673l1.257-3.268c.419.61 1.042 1.1 1.818 1.368l.69.238c.382.131.803-.055.942-.416.139-.36-.058-.76-.439-.89l-.69-.238c-1.142-.394-1.732-1.592-1.317-2.673l.251-.654.754-1.96c.415-1.08 1.682-1.64 2.824-1.246l37.114 12.775c.472.162.646.332.682.394-.03.065-.188.248-.643.449z" fill="#fffdfb"/><path d="M48.96 25.867l3.925-1.733c.455-.2.613-.384.643-.449-.036-.062-.21-.231-.682-.394L15.732 10.516c-1.142-.393-2.409.166-2.824 1.247l-.754 1.96-.251.653c-.415 1.08.175 2.28 1.317 2.673l.69.237 28.143 9.684c1.342.462 3.568.37 4.862-.2l1.102-.487h.001l.94-.416z" fill="#fffdfb"/></svg></svg>