<svg width="123" height="131" viewBox="0 0 123 131" fill="none" xmlns="http://www.w3.org/2000/svg"><path d="M37.879 28.864c9.503 20.145-11.697 44.68-28.88 32.648-7.412-5.19-9.94-15.232-7.826-24.329 4.882-21.009 28.548-25.617 36.706-8.319zm13.979 14.665c-19.008-13.31-2.18-49.454 19.58-42.096C81.35 4.785 86.66 17.114 82.27 29.78c-4.918 14.2-19.726 21.23-30.412 13.748z" fill="#FAC663" fill-opacity=".15"/><path d="M16.664 104.196c3.148 1.122 8.161 3.934 13.112 7.3 5.237 3.554 10.405 7.724 13.238 11.151 7.64 9.273 25.005 11.94 31.434-3.269 5.943-14.061-3.954-19.953 1.934-33.1 5.959-13.28 1.203-25.034-7.576-30.522-8.126-5.08-19.698-4.789-29.397 4.638-10.332 10.047-19.23 2.768-30.404 13.16-12.11 11.248-3.614 26.637 7.659 30.642zM85.31 66.954c-5.376-3.765-7.815-10.11-7.047-16.667 2.287-19.5 28.54-30.33 39.902-16.118 14.377 17.968-13.857 46.087-32.855 32.785z" fill="#FAC663" fill-opacity=".15"/><path d="M78.726 94.644c4.314-19.152 31.506-27.196 41.319-11.804 11.82 18.541-16.32 43.106-34.62 30.293-5.872-4.112-8.34-11.209-6.7-18.49z" fill="#FAC663" fill-opacity=".15"/></svg>