<svg width="248" height="291" viewBox="0 0 248 291" fill="none" xmlns="http://www.w3.org/2000/svg"><path d="M45.86 174.963c50.233-7.243 89.643 55.383 51.996 84.796-16.236 12.685-39.81 11.477-58.238.786-42.562-24.694-36.89-79.37 6.242-85.582zm41.257-20.666C45.475 186.831-22.15 125.973 8.342 83.457c13.894-19.369 44.3-22.697 69-4.653 27.692 20.218 33.185 57.203 9.775 75.493z" fill="#FAC663" fill-opacity=".15"/><path d="M196.01 271.598c4.536-6.115 13.996-15.162 24.624-23.704 11.226-9.038 23.75-17.515 33.104-21.399 25.292-10.454 42.64-46.522 13.752-70.712-26.71-22.36-46.13-4.725-70.88-26.355-24.999-21.872-53.782-19.366-71.579-3.899-16.47 14.317-23.524 39.739-9.414 67.187 15.043 29.243-6.736 43.772 8.5 75.082 16.478 33.924 55.672 25.695 71.893 3.8zM160.408 97.04c-11.779 9.202-27.231 10.276-41.02 4.214-40.996-18.028-47.17-82.502-8.637-97.766 48.723-19.323 91.276 61.035 49.657 93.552z" fill="#FAC663" fill-opacity=".15"/><path d="M216.404 129.915c-38.89-22.216-38.367-86.875 1.709-97.97 48.273-13.366 83.141 64.408 43.051 95.73-12.865 10.052-29.977 10.686-44.76 2.24z" fill="#FAC663" fill-opacity=".15"/></svg>